<?xml version="1.0" encoding="UTF-8"?>
<svg id="Layer_1" xmlns="http://www.w3.org/2000/svg" version="1.1" viewBox="0 0 20.22 21.62">
  <!-- Generator: Adobe Illustrator 29.1.0, SVG Export Plug-In . SVG Version: 2.1.0 Build 142)  -->
  <defs>
    <style>
      .st0 {
        fill: #ef4823;
      }
    </style>
  </defs>
  <path class="st0" d="M7.5,14.32l-1.24,3.69h-2.2L.88,8.29c-.09-.28.12-.57.41-.57h1.25c.19,0,.36.13.41.31l2.21,7.35,1.31-4.13-1.87-5.58h2.17l.73,2.32.73-2.32h2.17l-1.87,5.58,1.31,4.13L17.02,1.92C17.65.74,18.88,0,20.22,0h0l-9.28,18.01h-2.2l-1.24-3.69Z"/>
  <path class="st0" d="M17.13,6.82l-1.16,2.26c.2.81.29,1.67.24,2.55-.26,4.61-4.26,8.12-8.88,8.12H1.95v-3.86H0v5.73h7.26c5.34,0,10.07-3.85,10.74-9.15.26-2.02-.08-3.96-.87-5.65ZM0,6.39h1.95v-3.86h5.56c2.81,0,5.33,1.34,6.93,3.41l.94-1.76c-1.95-2.16-4.77-3.52-7.87-3.52H0v5.73Z"/>
</svg>