<?xml version="1.0" encoding="UTF-8"?>
<svg id="Layer_1" xmlns="http://www.w3.org/2000/svg" version="1.1" viewBox="0 0 63.86 16.44">
  <!-- Generator: Adobe Illustrator 29.1.0, SVG Export Plug-In . SVG Version: 2.1.0 Build 142)  -->
  <defs>
    <style>
      .st0 {
        fill: #ef4823;
      }
    </style>
  </defs>
  <g>
    <g>
      <path class="st0" d="M3.6,0h0C1.61,0,0,1.61,0,3.6v9.12h3.79c3.71,0,6.69-3.19,6.33-6.97C9.81,2.45,6.91,0,3.6,0ZM3.64,10.63h-1.55V2.1h1.69c2.44,0,4.41,2.07,4.25,4.55-.15,2.26-2.13,3.98-4.4,3.98Z"/>
      <path class="st0" d="M10.72,7.83v4.81h2.08v-7.54h2.77v-2.11c-2.67,0-4.84,2.17-4.84,4.84Z"/>
      <path class="st0" d="M15.94,2.99v9.65h2.08V2.99h-2.08ZM16.99.03c-.67,0-1.22.54-1.22,1.22s.54,1.21,1.22,1.21,1.21-.54,1.21-1.21S17.66.03,16.99.03Z"/>
      <path class="st0" d="M25.56,5.09l-2.06,4.86-3.02-6.96h-2.29l4.18,9.64h2.26l4.08-9.64c-1.38,0-2.63.83-3.17,2.1Z"/>
      <path class="st0" d="M46.24,2.99l-2.39,7.58-1.02-3.22,1.46-4.36h-1.69l-.58,1.81-.57-1.81h-1.7l1.46,4.36-1.02,3.22-2.4-7.58h-1.7l3.24,9.63h0c1.02,0,1.93-.65,2.26-1.62l.42-1.26.42,1.26c.33.97,1.24,1.62,2.26,1.62h0l3.23-9.63h-1.7Z"/>
      <path class="st0" d="M51.69,2.99h-1.34v2.1h1.34c.32,0,.58.26.58.58v.21h-1.92c-1.86,0-3.37,1.51-3.37,3.37s1.51,3.37,3.37,3.37c.37,0,1.15-.07,1.92-.58v.4h2.1v-6.78c0-1.48-1.2-2.68-2.68-2.68ZM50.35,10.52c-.7,0-1.27-.57-1.27-1.27s.57-1.27,1.27-1.27h1.88c-.17,1.08-.62,2.54-1.88,2.54Z"/>
      <path class="st0" d="M61.52,2.99l-2.22,6.82-1.92,5.92h2.33l4.15-12.74h-2.34ZM54.9,5.13l2.06,4.69h2.33l-3-6.82h0c-1.1,0-1.84,1.13-1.39,2.14Z"/>
    </g>
    <path class="st0" d="M36.66,8.83h-6.87c.25,1.22,1.23,2.14,2.41,2.14.88,0,1.66-.51,2.09-1.29h2.18c-.59,1.91-2.29,3.29-4.28,3.29-.99,0-1.95-.35-2.72-.97-.95-.77-1.54-1.9-1.73-3.1-.15-.97-.06-2,.33-2.9.39-.89,1.07-1.65,1.91-2.13.67-.38,1.43-.57,2.2-.57,1.1,0,2.1.4,2.89,1.06l-1.28,1.17c-.45-.33-1.01-.52-1.61-.52-1.17,0-2.17.73-2.57,1.75h3.36l1.09-1,1.26-1.16.92-.84-.81.96-1.11,1.32-.61.73h1.04c-.05-.15-.13-.29-.21-.43l1.13-1.36c.62.77.99,1.75.99,2.8.01.14.02.28.02.43,0,.21-.01.42-.04.62Z"/>
  </g>
  <g>
    <path class="st0" d="M19.21,14.5l-.04.29h-.5v1.61h-.37v-1.61h-.51v-.29h1.41Z"/>
    <path class="st0" d="M20.49,16.4v-.85h-.68v.85h-.36v-1.9h.36v.76h.68v-.76h.37v1.9h-.37Z"/>
    <path class="st0" d="M22.4,14.5l-.04.27h-.7v.53h.61v.27h-.61v.56h.75v.27h-1.11v-1.9h1.1Z"/>
    <path class="st0" d="M23.44,16.4v-1.9h1.08l-.04.27h-.67v.57h.59v.27h-.59v.79h-.36Z"/>
    <path class="st0" d="M26.17,15.78c0,.13-.03.24-.08.34-.05.1-.13.18-.24.24s-.24.09-.39.09c-.23,0-.4-.06-.52-.18-.12-.12-.18-.28-.18-.48v-1.28h.36v1.26c0,.13.03.23.08.3.06.07.14.1.26.1s.2-.03.26-.1c.06-.07.08-.17.08-.3v-1.26h.37v1.28Z"/>
    <path class="st0" d="M27.81,14.5l-.04.29h-.5v1.61h-.37v-1.61h-.51v-.29h1.41Z"/>
    <path class="st0" d="M29.43,15.78c0,.13-.03.24-.08.34-.05.1-.13.18-.24.24s-.24.09-.39.09c-.23,0-.4-.06-.52-.18-.12-.12-.18-.28-.18-.48v-1.28h.36v1.26c0,.13.03.23.08.3.06.07.14.1.26.1s.2-.03.26-.1c.06-.07.08-.17.08-.3v-1.26h.37v1.28Z"/>
    <path class="st0" d="M30.44,15.64h-.23v.76h-.36v-1.9h.57c.5,0,.75.19.75.56,0,.13-.03.23-.09.31-.06.08-.16.15-.29.2l.5.83h-.42l-.42-.76ZM30.21,15.38h.23c.12,0,.2-.03.26-.08.06-.05.09-.13.09-.24,0-.1-.03-.18-.09-.22-.06-.05-.16-.07-.29-.07h-.2v.61Z"/>
    <path class="st0" d="M32.63,14.5l-.04.27h-.7v.53h.61v.27h-.61v.56h.75v.27h-1.11v-1.9h1.1Z"/>
    <path class="st0" d="M34.7,14.51c.09.03.17.08.25.15l-.18.21c-.11-.09-.23-.13-.35-.13-.14,0-.25.06-.34.17s-.13.29-.13.54.04.42.13.53c.08.12.2.17.34.17.08,0,.14-.01.2-.04.06-.03.12-.06.19-.11l.17.21c-.06.07-.15.12-.24.17s-.21.07-.33.07c-.17,0-.31-.04-.44-.12-.13-.08-.22-.19-.29-.34s-.1-.33-.1-.54.04-.39.11-.53c.07-.15.17-.26.3-.34.13-.08.27-.12.42-.12.12,0,.22.02.3.05Z"/>
    <path class="st0" d="M36.24,16.4l-.12-.44h-.63l-.12.44h-.38l.59-1.9h.45l.59,1.9h-.38ZM35.57,15.68h.48l-.24-.91-.24.91Z"/>
    <path class="st0" d="M37.43,15.64h-.23v.76h-.36v-1.9h.57c.5,0,.75.19.75.56,0,.13-.03.23-.09.31-.06.08-.16.15-.29.2l.5.83h-.42l-.42-.76ZM37.2,15.38h.23c.12,0,.2-.03.26-.08.06-.05.09-.13.09-.24,0-.1-.03-.18-.09-.22-.06-.05-.16-.07-.29-.07h-.2v.61Z"/>
    <path class="st0" d="M41.24,14.5l-.35,1.9h-.47l-.29-1.52-.3,1.52h-.46l-.34-1.9h.36l.24,1.61.31-1.61h.39l.31,1.61.26-1.61h.34Z"/>
    <path class="st0" d="M42.52,16.4l-.12-.44h-.63l-.12.44h-.38l.59-1.9h.45l.59,1.9h-.38ZM41.84,15.68h.48l-.24-.91-.24.91Z"/>
    <path class="st0" d="M44.01,14.52c.1.04.19.1.28.18l-.18.21c-.07-.06-.14-.1-.2-.12-.07-.03-.14-.04-.22-.04-.09,0-.16.02-.21.06-.05.04-.08.09-.08.17,0,.05.01.09.03.12.02.03.06.06.11.09.06.03.14.06.24.09.19.06.33.13.42.22s.14.21.14.38c0,.11-.03.21-.09.3-.06.09-.14.16-.25.21-.11.05-.24.07-.38.07s-.27-.02-.39-.07c-.11-.05-.21-.11-.3-.19l.19-.21c.07.06.15.11.23.14s.17.05.26.05c.1,0,.19-.02.25-.07.06-.05.1-.12.1-.21,0-.06-.01-.1-.03-.14-.02-.04-.06-.07-.11-.1s-.13-.06-.23-.09c-.2-.06-.35-.14-.44-.23-.09-.09-.13-.2-.13-.35,0-.1.03-.2.08-.28.06-.08.13-.14.23-.18s.21-.07.33-.07c.13,0,.25.02.35.06Z"/>
    <path class="st0" d="M45.69,16.4v-.85h-.68v.85h-.36v-1.9h.36v.76h.68v-.76h.37v1.9h-.37Z"/>
  </g>
</svg>