<svg width="1291" height="752" viewBox="0 0 1291 752" fill="none" xmlns="http://www.w3.org/2000/svg">
<g opacity="0.5" clip-path="url(#clip0_41_259)">
<g clip-path="url(#clip1_41_259)">
<g clip-path="url(#clip2_41_259)">
<path d="M1277.11 31.3017L1083.73 142.952C1078.83 145.782 1077.15 152.037 1079.98 156.936L1204.41 372.451C1207.23 377.35 1205.56 383.606 1200.66 386.436L1031.8 483.925C1026.9 486.753 1025.22 493.008 1028.05 497.907L1076.67 582.118C1079.5 587.017 1077.82 593.273 1072.93 596.101L950.719 666.656C945.82 669.485 939.565 667.809 936.737 662.91L852.713 517.377C849.885 512.478 843.63 510.802 838.731 513.631L748.455 565.752C743.556 568.58 741.88 574.835 744.708 579.734L806.762 687.214C809.59 692.113 807.914 698.368 803.016 701.196L765.517 722.846C760.618 725.675 758.942 731.93 761.77 736.828L840.844 873.789C843.672 878.687 841.996 884.942 837.098 887.77L644.619 998.898" stroke="#4E6A74" stroke-width="1.3468" stroke-miterlimit="10"/>
<path d="M1541.91 562.688L1435.25 624.268C1430.35 627.098 1424.09 625.423 1421.27 620.524L1364.14 521.587C1361.32 516.689 1355.06 515.012 1350.17 517.837L1259.83 569.992C1254.93 572.822 1248.67 571.147 1245.85 566.249L1215.66 513.966C1212.83 509.067 1206.58 507.392 1201.68 510.222L1155.29 537.002" stroke="#4E6A74" stroke-width="1.3468" stroke-miterlimit="10"/>
<path d="M1404.44 591.321L1218.09 698.911C1213.19 701.739 1206.93 700.063 1204.11 695.164L1182.46 657.665C1179.63 652.767 1173.37 651.091 1168.47 653.919L952.959 778.347C948.061 781.175 941.806 779.499 938.977 774.6L913.792 730.978C910.964 726.079 912.64 719.824 917.538 716.996L955.037 695.346C959.935 692.518 966.191 694.194 969.019 699.093L980.736 719.387C983.565 724.286 989.82 725.962 994.718 723.134L1064.44 682.882" stroke="#4E6A74" stroke-width="1.3468" stroke-miterlimit="10"/>
<path d="M1450.99 584.075L1380.27 461.577C1377.44 456.678 1371.19 454.998 1366.29 457.828L1345.94 469.578C1341.04 472.408 1334.78 470.732 1331.96 465.834L1306.74 422.153C1303.91 417.254 1297.65 415.579 1292.76 418.404L1109.11 524.433C1104.21 527.261 1102.54 533.516 1105.36 538.415L1139.1 596.851C1141.93 601.749 1140.25 608.004 1135.36 610.832L1027.58 673.054" stroke="#4E6A74" stroke-width="1.3468" stroke-miterlimit="10"/>
<path d="M1359.05 586.422L1236.55 657.147C1231.65 659.977 1225.39 658.301 1222.56 653.403L1200.88 615.846C1198.05 610.947 1191.8 609.271 1186.9 612.096L1111.06 655.886" stroke="#4E6A74" stroke-width="1.3468" stroke-miterlimit="10"/>
<path d="M910.205 58.5016L968.05 158.692C970.878 163.591 969.202 169.847 964.3 172.677L888.693 216.329C883.794 219.157 882.118 225.412 884.946 230.31L999.475 428.679C1002.3 433.579 1000.63 439.834 995.728 442.662L928.721 481.349C923.822 484.177 922.146 490.432 924.975 495.331L982.062 594.21C984.89 599.108 983.215 605.364 978.316 608.192L923.322 639.943" stroke="#4E6A74" stroke-width="1.3468" stroke-miterlimit="10"/>
<path d="M1160.63 296.638L1093.4 335.458C1088.49 338.288 1086.82 344.543 1089.65 349.442L1114.86 393.123C1117.69 398.021 1116.02 404.277 1111.12 407.102L988.855 477.693C983.957 480.521 982.281 486.777 985.109 491.675L1030.31 569.967" stroke="#4E6A74" stroke-width="1.3468" stroke-miterlimit="10"/>
<path d="M935.098 189.497L956.916 227.287C959.744 232.186 958.067 238.441 953.169 241.269L938.939 249.485C934.04 252.313 932.364 258.568 935.193 263.467L1024.35 417.894" stroke="#4E6A74" stroke-width="1.3468" stroke-miterlimit="10"/>
<path d="M1058.77 -27.2736L1089.68 26.2625C1092.51 31.1613 1090.83 37.4169 1085.93 40.2469L986.996 97.3669C982.094 100.197 980.417 106.453 983.246 111.351L1040.37 210.289C1043.2 215.187 1041.52 221.442 1036.63 224.267L984.343 254.452C979.441 257.282 977.765 263.538 980.593 268.437L1005.95 312.35" stroke="#4E6A74" stroke-width="1.3468" stroke-miterlimit="10"/>
<path d="M1128.73 241.382L1090.94 263.202C1086.05 266.027 1084.37 272.283 1087.2 277.182L1090.45 282.81C1093.28 287.709 1091.6 293.964 1086.7 296.794L1028.29 330.514C1023.39 333.344 1021.72 339.595 1024.55 344.493L1037.87 367.558" stroke="#4E6A74" stroke-width="1.3468" stroke-miterlimit="10"/>
<path d="M1162.04 97.7384L1215.76 190.785C1218.59 195.683 1216.92 201.939 1212.02 204.764L1183.06 221.484C1178.17 224.309 1176.49 230.564 1179.32 235.463L1263.38 381.054C1266.21 385.954 1264.53 392.209 1259.63 395.039L1081.88 497.665" stroke="#4E6A74" stroke-width="1.3468" stroke-miterlimit="10"/>
<path d="M1180.48 129.668L1142.69 151.483C1137.79 154.313 1136.11 160.568 1138.94 165.467L1150.69 185.82C1153.52 190.719 1151.85 196.975 1146.95 199.8L1141.32 203.05C1136.42 205.88 1134.74 212.135 1137.57 217.033L1199.8 324.806" stroke="#4E6A74" stroke-width="1.3468" stroke-miterlimit="10"/>
<path d="M1397.22 346.668L1328.86 386.133C1323.97 388.958 1317.71 387.281 1314.88 382.383L1252.8 274.844C1249.97 269.945 1243.71 268.27 1238.81 271.1L1209.62 287.95" stroke="#4E6A74" stroke-width="1.3468" stroke-miterlimit="10"/>
<path d="M1053.6 899.47L1013 829.139C1010.17 824.239 1003.91 822.563 999.015 825.392L932.007 864.079C927.109 866.907 920.854 865.231 918.026 860.333L855.938 752.793C853.11 747.895 846.855 746.219 841.955 749.047L786.961 780.798" stroke="#4E6A74" stroke-width="1.3468" stroke-miterlimit="10"/>
<path d="M1114.98 864.033L1082.88 808.426C1080.05 803.528 1081.73 797.273 1086.63 794.444L1156.08 754.343C1160.98 751.515 1162.66 745.259 1159.83 740.361L1124.54 679.244" stroke="#4E6A74" stroke-width="1.3468" stroke-miterlimit="10"/>
<path d="M1143.16 711.493L1108.43 731.543C1103.53 734.372 1101.86 740.627 1104.69 745.526L1107.77 750.861C1110.6 755.761 1108.92 762.016 1104.02 764.844L1048.68 796.797C1043.78 799.625 1037.52 797.949 1034.69 793.05L1026.48 778.821C1023.65 773.922 1017.4 772.246 1012.5 775.075L943.012 815.192C938.112 818.021 931.857 816.345 929.029 811.445L871.908 712.509C869.079 707.61 862.824 705.934 857.925 708.762L796.808 744.048" stroke="#4E6A74" stroke-width="1.3468" stroke-miterlimit="10"/>
<path d="M912.346 688.812L882.026 636.296C879.198 631.397 872.943 629.721 868.044 632.55L845.213 645.731C840.313 648.56 834.058 646.884 831.23 641.985L796.078 581.1C793.25 576.202 794.926 569.947 799.826 567.119L805.453 563.87C810.352 561.041 816.607 562.717 819.435 567.615L831.186 587.969C834.015 592.868 840.27 594.544 845.168 591.716L882.959 569.897" stroke="#4E6A74" stroke-width="1.3468" stroke-miterlimit="10"/>
<path d="M1334.64 525.633L1323.3 505.979C1320.47 501.08 1314.21 499.404 1309.31 502.234L1266.24 527.099C1261.34 529.929 1255.09 528.254 1252.26 523.356L1239.11 500.582C1236.28 495.684 1237.96 489.428 1242.86 486.598L1263.15 474.883C1268.05 472.053 1269.73 465.798 1266.9 460.898L1255.02 440.312" stroke="#4E6A74" stroke-width="1.3468" stroke-miterlimit="10"/>
<path d="M880.242 564.855C877.424 566.482 876.458 570.086 878.085 572.904C879.712 575.722 883.316 576.688 886.134 575.061C888.952 573.434 889.917 569.83 888.29 567.012C886.663 564.194 883.06 563.228 880.242 564.855Z" fill="#4E6A74"/>
<path d="M909.315 683.564C906.497 685.191 905.532 688.795 907.159 691.613C908.786 694.431 912.389 695.397 915.207 693.77C918.026 692.142 918.992 688.539 917.365 685.721C915.738 682.903 912.134 681.937 909.315 683.564Z" fill="#4E6A74"/>
<path d="M920.416 634.777C917.598 636.404 916.632 640.007 918.259 642.826C919.886 645.644 923.49 646.609 926.308 644.982C929.126 643.355 930.091 639.752 928.464 636.934C926.837 634.115 923.234 633.15 920.416 634.777Z" fill="#4E6A74"/>
<path d="M1027.9 565.723C1025.08 567.35 1024.11 570.954 1025.74 573.772C1027.37 576.59 1030.97 577.556 1033.79 575.928C1036.61 574.301 1037.57 570.698 1035.95 567.88C1034.32 565.062 1030.72 564.096 1027.9 565.723Z" fill="#4E6A74"/>
<path d="M1078.86 492.369C1076.04 493.996 1075.07 497.6 1076.7 500.418C1078.33 503.237 1081.93 504.202 1084.75 502.575C1087.57 500.948 1088.53 497.345 1086.91 494.526C1085.28 491.708 1081.68 490.742 1078.86 492.369Z" fill="#4E6A74"/>
<path d="M1157.6 291.388C1154.79 293.013 1153.82 296.618 1155.45 299.436C1157.08 302.254 1160.68 303.219 1163.5 301.594C1166.31 299.969 1167.28 296.364 1165.65 293.546C1164.02 290.728 1160.42 289.763 1157.6 291.388Z" fill="#4E6A74"/>
<path d="M1125.79 236.279C1122.97 237.904 1122 241.508 1123.63 244.326C1125.26 247.145 1128.86 248.109 1131.68 246.484C1134.49 244.859 1135.46 241.255 1133.83 238.437C1132.21 235.618 1128.6 234.654 1125.79 236.279Z" fill="#4E6A74"/>
<path d="M1206.72 282.859C1203.9 284.484 1202.94 288.089 1204.56 290.907C1206.19 293.725 1209.8 294.69 1212.61 293.065C1215.44 291.435 1216.39 287.835 1214.77 285.017C1213.14 282.199 1209.54 281.229 1206.72 282.859Z" fill="#4E6A74"/>
<path d="M1196.35 318.782C1193.54 320.407 1192.57 324.011 1194.2 326.829C1195.82 329.648 1199.43 330.613 1202.24 328.988C1205.07 327.358 1206.03 323.753 1204.41 320.934C1202.78 318.116 1199.17 317.152 1196.35 318.782Z" fill="#4E6A74"/>
<path d="M1251.92 435.221C1249.1 436.846 1248.13 440.45 1249.76 443.268C1251.39 446.087 1254.99 447.052 1257.81 445.427C1260.63 443.797 1261.6 440.192 1259.97 437.373C1258.34 434.555 1254.74 433.591 1251.92 435.221Z" fill="#4E6A74"/>
<path d="M1152.28 532.011C1149.47 533.636 1148.5 537.24 1150.13 540.058C1151.75 542.877 1155.36 543.842 1158.17 542.217C1161 540.587 1161.96 536.982 1160.34 534.163C1158.71 531.345 1155.11 530.381 1152.28 532.011Z" fill="#4E6A74"/>
<path d="M1177.45 124.417C1174.63 126.042 1173.66 129.647 1175.29 132.465C1176.92 135.283 1180.52 136.247 1183.34 134.622C1186.16 132.992 1187.13 129.388 1185.5 126.57C1183.88 123.752 1180.27 122.787 1177.45 124.417Z" fill="#4E6A74"/>
<path d="M1159.1 92.6349C1156.28 94.2599 1155.32 97.8645 1156.94 100.683C1158.57 103.501 1162.17 104.465 1164.99 102.84C1167.81 101.21 1168.78 97.6056 1167.15 94.7876C1165.53 91.9695 1161.92 91.0049 1159.1 92.6349Z" fill="#4E6A74"/>
<path d="M1059.43 678.927C1056.61 680.555 1055.65 684.158 1057.28 686.976C1058.9 689.794 1062.51 690.76 1065.32 689.133C1068.14 687.506 1069.11 683.902 1067.48 681.084C1065.85 678.266 1062.25 677.3 1059.43 678.927Z" fill="#4E6A74"/>
<path d="M1024.34 667.306C1021.52 668.933 1020.56 672.537 1022.18 675.356C1023.81 678.174 1027.42 679.14 1030.23 677.513C1033.05 675.885 1034.02 672.281 1032.39 669.463C1030.76 666.645 1027.16 665.679 1024.34 667.306Z" fill="#4E6A74"/>
<path d="M1140.28 706.507C1137.47 708.134 1136.5 711.737 1138.13 714.556C1139.75 717.374 1143.36 718.34 1146.18 716.713C1148.99 715.086 1149.96 711.482 1148.33 708.664C1146.71 705.845 1143.1 704.88 1140.28 706.507Z" fill="#4E6A74"/>
<path d="M1121.6 674.139C1118.78 675.766 1117.81 679.37 1119.44 682.188C1121.07 685.007 1124.67 685.972 1127.49 684.345C1130.31 682.718 1131.27 679.115 1129.64 676.296C1128.02 673.478 1124.41 672.512 1121.6 674.139Z" fill="#4E6A74"/>
<path d="M1108.13 650.813C1105.31 652.44 1104.34 656.043 1105.97 658.861C1107.6 661.679 1111.2 662.645 1114.02 661.018C1116.84 659.391 1117.8 655.787 1116.18 652.969C1114.55 650.151 1110.95 649.186 1108.13 650.813Z" fill="#4E6A74"/>
<path d="M793.92 738.911C791.102 740.538 790.136 744.142 791.763 746.96C793.391 749.779 796.994 750.744 799.812 749.117C802.63 747.49 803.596 743.887 801.968 741.068C800.341 738.25 796.738 737.284 793.92 738.911Z" fill="#4E6A74"/>
<path d="M931.983 184.102C929.16 185.732 928.201 189.332 929.828 192.15C931.455 194.968 935.052 195.937 937.875 194.307C940.69 192.682 941.657 189.078 940.03 186.26C938.403 183.442 934.798 182.477 931.983 184.102Z" fill="#4E6A74"/>
<path d="M1003.03 307.154C1000.2 308.784 999.245 312.384 1000.87 315.202C1002.5 318.02 1006.1 318.989 1008.92 317.359C1011.73 315.734 1012.7 312.13 1011.07 309.312C1009.45 306.494 1005.84 305.529 1003.03 307.154Z" fill="#4E6A74"/>
<path d="M1035.01 362.555C1032.19 364.185 1031.23 367.785 1032.86 370.604C1034.49 373.422 1038.08 374.391 1040.91 372.761C1043.72 371.136 1044.69 367.532 1043.06 364.714C1041.43 361.895 1037.83 360.93 1035.01 362.555Z" fill="#4E6A74"/>
<path d="M1021.29 412.859C1018.47 414.487 1017.5 418.09 1019.13 420.908C1020.76 423.726 1024.36 424.692 1027.18 423.064C1030 421.437 1030.96 417.834 1029.34 415.016C1027.71 412.198 1024.11 411.232 1021.29 412.859Z" fill="#4E6A74"/>
</g>
</g>
</g>
<defs>
<clipPath id="clip0_41_259">
<rect width="1382" height="801" fill="white" transform="translate(0 583) rotate(-30)"/>
</clipPath>
<clipPath id="clip1_41_259">
<rect width="1382" height="801" fill="white" transform="translate(0 583) rotate(-30)"/>
</clipPath>
<clipPath id="clip2_41_259">
<rect width="1382" height="801" fill="white" transform="translate(0 583) rotate(-30)"/>
</clipPath>
</defs>
</svg>
