<?xml version="1.0" encoding="UTF-8"?>
<svg version="1.1" xmlns="http://www.w3.org/2000/svg" width="654" height="243">
<path d="M0 0 C215.82 0 431.64 0 654 0 C654 80.19 654 160.38 654 243 C438.18 243 222.36 243 0 243 C0 162.81 0 82.62 0 0 Z " fill="#FEFEFE" transform="translate(0,0)"/>
<path d="M0 0 C0.83402344 0.09845215 1.66804688 0.1969043 2.52734375 0.29833984 C17.18957937 2.21416711 28.01049549 9.62723447 37.62109375 20.78515625 C40.56649334 24.71433115 42.67200819 28.85755973 44.5625 33.375 C45.09037109 34.57189453 45.09037109 34.57189453 45.62890625 35.79296875 C49.98962178 47.85335772 48.4770964 63.22660256 43.49609375 74.8671875 C42.30265645 77.14377746 41.00614657 79.24875967 39.5625 81.375 C39.046875 82.13554687 38.53125 82.89609375 38 83.6796875 C28.91806856 96.16734324 17.21956003 102.10974729 2.34179688 104.5546875 C-5.49776255 105.67264871 -13.29664569 105.56667968 -21.19140625 105.484375 C-22.67809592 105.47557208 -24.16479069 105.46759176 -25.65148926 105.46044922 C-29.24693463 105.44142146 -32.84218312 105.41135931 -36.4375 105.375 C-36.50727493 95.26470183 -36.56045013 85.15446176 -36.59293652 75.04397106 C-36.60853512 70.34831878 -36.62966624 65.65283229 -36.66381836 60.95727539 C-36.69662026 56.41850995 -36.71439658 51.87990312 -36.72213173 47.34102821 C-36.72763809 45.61682962 -36.73838981 43.89263886 -36.75469017 42.16850853 C-36.96968939 18.46633021 -36.96968939 18.46633021 -29.23046875 9.16015625 C-20.75608382 0.72269674 -11.62110585 -1.42661377 0 0 Z " fill="#E74A2E" transform="translate(104.4375,64.625)"/>
<path d="M0 0 C4.62 0 9.24 0 14 0 C17.30151896 7.82582271 19.88717161 15.78919868 22.35888672 23.90332031 C23.1869484 26.61139104 24.03162315 29.31409547 24.87841797 32.01635742 C25.29127292 33.33389336 25.70306504 34.65176284 26.11376953 35.9699707 C27.20434008 39.47007183 28.30704701 42.96582196 29.42578125 46.45703125 C29.6578125 47.18599609 29.88984375 47.91496094 30.12890625 48.66601562 C30.57462503 50.06557259 31.02368599 51.46407089 31.4765625 52.86132812 C32.37761201 55.7010874 33 57.99915692 33 61 C33.66 61 34.32 61 35 61 C35.0825 60.071875 35.165 59.14375 35.25 58.1875 C35.83805899 53.89812855 37.40485481 50.11628606 39.0625 46.13671875 C42.23855347 35.51017318 39.73435305 27.63134333 36.0625 17.5625 C35.33735921 15.52242439 34.61788463 13.48049539 33.90245056 11.43699646 C33.25633682 9.59968168 32.5954841 7.76756963 31.93383789 5.93579102 C31 3 31 3 31 0 C35.62 0 40.24 0 45 0 C45.99 4.29 46.98 8.58 48 13 C48.66 13 49.32 13 50 13 C50.99 8.71 51.98 4.42 53 0 C57.62 0 62.24 0 67 0 C65.34941555 8.37518777 62.59754923 16.20269593 59.65820312 24.20507812 C56.33965851 33.70298167 57.39600169 39.92068797 60.5 49.3125 C60.72558594 50.01439453 60.95117188 50.71628906 61.18359375 51.43945312 C62.10491747 54.29882763 63.0500122 57.15003659 64 60 C67.42075828 51.4340848 70.38712815 42.842851 73 34 C73.4797399 32.39691712 73.9602628 30.79406843 74.44140625 29.19140625 C74.69647949 28.34175293 74.95155273 27.49209961 75.21435547 26.61669922 C75.47361816 25.75318848 75.73288086 24.88967773 76 24 C76.51435351 22.28516543 77.02867693 20.57032183 77.54296875 18.85546875 C77.78966309 18.03353027 78.03635742 17.2115918 78.29052734 16.36474609 C78.74196966 14.86004195 79.19287581 13.35517677 79.64306641 11.85009766 C80.19634318 10.00326976 80.75423317 8.15782562 81.3125 6.3125 C81.61800781 5.29800781 81.92351562 4.28351563 82.23828125 3.23828125 C83 1 83 1 84 0 C86.35313555 -0.07271741 88.70833668 -0.08370868 91.0625 -0.0625 C92.99802734 -0.04896484 92.99802734 -0.04896484 94.97265625 -0.03515625 C95.97167969 -0.02355469 96.97070312 -0.01195313 98 0 C95.62137134 9.36145943 92.58300429 18.4793553 89.5 27.625 C88.97266408 29.19683356 88.44565097 30.76877545 87.91894531 32.34082031 C86.83070898 35.58799702 85.741039 38.83468738 84.65039062 42.08105469 C82.24924939 49.23231054 79.86685284 56.38981136 77.48364258 63.54705811 C76.3179787 67.04724997 75.15114884 70.54705301 73.984375 74.046875 C73.59991211 75.20026367 73.21544922 76.35365234 72.81933594 77.54199219 C72.54895508 78.35313477 72.27857422 79.16427734 72 80 C64.09863443 79.54509222 60.38197665 77.90240364 55 72 C51.4507852 67.62263508 50.89659425 62.43230635 50 57 C49.34 57 48.68 57 48 57 C47.773125 58.299375 47.54625 59.59875 47.3125 60.9375 C45.87004535 67.16851158 44.02305981 72.898067 38.58984375 76.67578125 C34.43669236 78.84716379 31.74966082 80 27 80 C22.60252221 69.38559888 18.76312182 58.66612168 15.1875 47.75 C14.66938426 46.17905438 14.15082329 44.60825554 13.63183594 43.03759766 C12.84653663 40.66031986 12.06170727 38.28289529 11.27883911 35.90481567 C9.61107482 30.83937993 7.9248603 25.78052275 6.22265625 20.7265625 C5.80282471 19.4777832 5.38299316 18.22900391 4.95043945 16.94238281 C4.16570608 14.61036653 3.37916081 12.27895896 2.59057617 9.94824219 C2.24615479 8.92118164 1.9017334 7.89412109 1.546875 6.8359375 C1.24620117 5.94438965 0.94552734 5.0528418 0.63574219 4.13427734 C0 2 0 2 0 0 Z " fill="#E74D31" transform="translate(369,89)"/>
<path d="M0 0 C19.60362781 -0.61261337 19.60362781 -0.61261337 25 4 C29.85365211 8.64979872 33.67643625 13.02450964 34.24050903 19.95503235 C34.2338472 21.59051277 34.2338472 21.59051277 34.22705078 23.2590332 C34.22689972 24.49994217 34.22674866 25.74085114 34.22659302 27.0193634 C34.21638143 28.36317101 34.20594946 29.70697695 34.1953125 31.05078125 C34.19157931 32.4336883 34.18873378 33.81659802 34.18673706 35.19950867 C34.17912462 38.8278034 34.15949691 42.45593637 34.1373291 46.08416748 C34.11681899 49.79111544 34.10772433 53.4980897 34.09765625 57.20507812 C34.07624852 64.47013414 34.04108613 71.73502373 34 79 C28.06 79 22.12 79 16 79 C15.67 78.34 15.34 77.68 15 77 C14.13375 77.495 13.2675 77.99 12.375 78.5 C5.50265401 81.37389014 -2.36376824 81.19096092 -9.36328125 78.8984375 C-18.11787332 74.82095626 -23.66716133 69.49107689 -27.3046875 60.51953125 C-29.34418659 53.12921151 -28.78329716 45.82787746 -25.25390625 39.02734375 C-21.16595561 32.41785347 -16.34828633 27.84525647 -9 25 C-3.50305608 23.91808316 1.86308519 23.87910565 7.4375 23.9375 C8.26443359 23.94201172 9.09136719 23.94652344 9.94335938 23.95117188 C11.96227146 23.96284189 13.98114574 23.98077282 16 24 C15.34 22.35 14.68 20.7 14 19 C12.86111328 18.90912109 12.86111328 18.90912109 11.69921875 18.81640625 C10.70535156 18.73261719 9.71148437 18.64882812 8.6875 18.5625 C7.70136719 18.48128906 6.71523438 18.40007812 5.69921875 18.31640625 C3 18 3 18 0 17 C0 11.39 0 5.78 0 0 Z " fill="#E74C2F" transform="translate(487,89)"/>
<path d="M0 0 C9.26789814 -0.50819643 18.41825426 2.28882647 25.64453125 8.2265625 C23.66133239 12.7107412 20.7758185 15.61307426 16.64453125 18.2265625 C14.08203125 18.2265625 14.08203125 18.2265625 11.64453125 17.2265625 C5.88759219 15.05171886 1.00040786 14.06291488 -4.87890625 16.1015625 C-11.28807136 19.0270673 -16.16373327 22.84309154 -19.35546875 29.2265625 C-15.38897369 29.3068995 -11.42692736 29.32667762 -7.4597168 29.29370117 C-5.458001 29.28915345 -3.45634972 29.33063451 -1.45507812 29.37304688 C5.50119733 29.28543635 9.79168419 28.95210462 14.828125 23.88671875 C16.11173399 22.34280077 17.3845427 20.78981668 18.64453125 19.2265625 C19.99336401 17.98908739 21.36479907 16.7751987 22.76953125 15.6015625 C26.58889154 12.32672948 30.13795594 8.83176024 33.64453125 5.2265625 C33.64453125 9.41862674 31.28453436 11.06761796 28.51953125 13.9140625 C24.20178006 18.47542897 20.29271668 23.09938298 16.64453125 28.2265625 C18.62453125 28.2265625 20.60453125 28.2265625 22.64453125 28.2265625 C22.14953125 26.7415625 22.14953125 26.7415625 21.64453125 25.2265625 C23.515625 22.52734375 23.515625 22.52734375 26.08203125 19.5390625 C26.92636719 18.54519531 27.77070313 17.55132812 28.640625 16.52734375 C29.63255859 15.38845703 29.63255859 15.38845703 30.64453125 14.2265625 C33.51119685 16.8708662 35.32372341 19.13124911 36.83203125 22.7265625 C37.15558594 23.479375 37.47914063 24.2321875 37.8125 25.0078125 C40.64738015 32.56749289 39.64453125 36.8735594 39.64453125 46.2265625 C20.50453125 46.2265625 1.36453125 46.2265625 -18.35546875 46.2265625 C-13.86760862 55.79244716 -13.86760862 55.79244716 -6.35546875 62.2265625 C0.30850846 64.39001803 6.52000762 63.78882431 12.72265625 60.6875 C14.91977239 59.17520773 14.91977239 59.17520773 16.796875 56.1015625 C18.40319405 54.10115984 19.20606476 53.32871051 21.72998047 52.74072266 C24.16431786 52.63660432 26.52529886 52.70185837 28.95703125 52.8515625 C29.79298828 52.87863281 30.62894531 52.90570313 31.49023438 52.93359375 C33.54278372 53.00396687 35.59399716 53.11157928 37.64453125 53.2265625 C34.66680341 63.99943418 29.18862299 71.26150516 19.64453125 77.2265625 C10.75270123 81.87830691 1.13264173 82.92285163 -8.59765625 80.37890625 C-20.55120005 75.89252531 -27.87603865 67.89156631 -33.16699219 56.47558594 C-35.4201156 51.1200643 -35.89926814 46.25364681 -35.85546875 40.4765625 C-35.84974854 39.59838867 -35.84402832 38.72021484 -35.83813477 37.81542969 C-35.47542002 24.55252695 -29.78164178 16.3733367 -20.48046875 7.4765625 C-14.07203266 2.86248852 -7.80814659 0.75103234 0 0 Z " fill="#E74B2F" transform="translate(334.35546875,90.7734375)"/>
<path d="M0 0 C2.36641012 5.42590309 4.73253041 10.85193243 7.09838867 16.27807617 C7.90234652 18.12186045 8.7063819 19.96561092 9.51049805 21.80932617 C10.66996594 24.46784606 11.82914985 27.12648963 12.98828125 29.78515625 C13.34465164 30.60210464 13.70102203 31.41905304 14.06819153 32.26075745 C15.61874547 35.81787009 17.16471098 39.37666555 18.69140625 42.9440918 C19.43108871 44.67144355 20.17811806 46.3958179 20.94921875 48.109375 C22.21813505 50.929189 23 52.87404987 23 56 C23.66 56 24.32 56 25 56 C25.24234375 54.80246094 25.4846875 53.60492188 25.734375 52.37109375 C27.19240859 45.82145339 29.2386522 39.45936167 31.25 33.0625 C31.65237899 31.77453187 32.05464049 30.48652703 32.45678711 29.19848633 C35.51703117 19.42340637 38.71039575 9.70011511 42 0 C48.6 0 55.2 0 62 0 C60.6696875 4.1765625 60.6696875 4.1765625 59.3125 8.4375 C57.55428896 13.97183653 55.83414997 19.51009577 54.24682617 25.09594727 C51.61932769 34.33405301 48.47746987 43.36511427 45.29760742 52.42626953 C42.99509272 59.02173014 40.85630978 65.6184294 38.96411133 72.34155273 C35.72432502 83.68566519 31.77415672 94.82553598 28 106 C21.4 106 14.8 106 8 106 C8.44730469 104.60910156 8.89460937 103.21820313 9.35546875 101.78515625 C12.46384241 92.08658196 15.51986138 82.38228822 18.35498047 72.60009766 C19.78292285 67.68725287 21.32961937 62.83531236 23 58 C21.72382812 57.95101562 20.44765625 57.90203125 19.1328125 57.8515625 C17.46351928 57.77653809 15.79424954 57.70099012 14.125 57.625 C13.28324219 57.5940625 12.44148437 57.563125 11.57421875 57.53125 C10.76855469 57.49257812 9.96289062 57.45390625 9.1328125 57.4140625 C8.38918457 57.3826416 7.64555664 57.3512207 6.87939453 57.31884766 C5 57 5 57 3 55 C2.15649047 53.00025123 1.37320989 50.97482311 0.625 48.9375 C-2.42608497 40.81911602 -5.89335888 33.07409033 -9.8515625 25.359375 C-12.70231651 19.50272391 -14.19922403 14.53475465 -13 8 C-9.70232412 2.38585855 -6.5282447 -0.17179591 0 0 Z " fill="#E74C30" transform="translate(538,89)"/>
<path d="M0 0 C16.95391196 0 28.49869263 0.1351355 40.8046875 11.6953125 C47.82524677 19.20486595 50.36000314 28.31378762 50.2109375 38.390625 C49.5045812 47.12851406 45.07771873 55.90692263 38.92578125 62.08203125 C33.97152828 66.18895997 29.19008849 68.41050169 23 70 C21.205625 70.5878125 21.205625 70.5878125 19.375 71.1875 C13.01965857 72.36777769 6.4640096 72 0 72 C0 48.24 0 24.48 0 0 Z " fill="#FEFBFA" transform="translate(85,81)"/>
<path d="M0 0 C6.27 0 12.54 0 19 0 C24.30038543 10.27953539 29.26408559 20.81373183 33.0625 31.75 C34.83204584 36.82116601 37.1562642 41.51281875 39.6328125 46.2734375 C43 52.98857143 43 52.98857143 43 57 C43.66 57 44.32 57 45 57 C45.0825 56.175 45.165 55.35 45.25 54.5 C45.9717535 51.13181701 47.16059289 48.61941743 48.76171875 45.59765625 C50.39895644 42.16307245 51.69028695 38.63246461 53 35.0625 C62.95099463 8.15133479 62.95099463 8.15133479 75.01171875 1.96875 C79.16579213 0.25964552 82.47517419 -0.11552747 87 0 C86.54109375 1.11117187 86.0821875 2.22234375 85.609375 3.3671875 C80.06152303 16.73418078 80.06152303 16.73418078 74.7890625 30.2109375 C72.73789152 35.64343275 70.64313164 40.91268725 67.9609375 46.0625 C65.53803645 50.94769886 63.71589033 56.11993019 61.77734375 61.2109375 C61.35582031 62.31695312 60.93429687 63.42296875 60.5 64.5625 C59.92765625 66.08037109 59.92765625 66.08037109 59.34375 67.62890625 C57.68047965 71.80158738 55.82435916 75.89519188 54 80 C47.4 80 40.8 80 34 80 C33.443125 78.5975 32.88625 77.195 32.3125 75.75 C31.54337669 73.83264649 30.77239498 71.91603787 30 70 C29.57976562 68.95714844 29.15953125 67.91429687 28.7265625 66.83984375 C28.30117187 65.79957031 27.87578125 64.75929688 27.4375 63.6875 C27.04433594 62.72199219 26.65117187 61.75648438 26.24609375 60.76171875 C25.06349727 57.99144813 25.06349727 57.99144813 23.49609375 55.5234375 C21.84339611 52.73585872 20.74716852 49.97639261 19.625 46.9375 C16.42807626 38.46326632 13.13807629 30.12698627 9 22.0625 C5.37106771 14.9546688 2.52224209 7.56672627 0 0 Z " fill="#E74C30" transform="translate(220,89)"/>
<path d="M0 0 C0 5.94 0 11.88 0 18 C-7.59 18 -15.18 18 -23 18 C-23 38.46 -23 58.92 -23 80 C-28.94 80 -34.88 80 -41 80 C-41.12452203 73.38385718 -41.21477328 66.76841137 -41.2746582 60.15136719 C-41.29964839 57.9051524 -41.33365235 55.65901764 -41.37719727 53.41308594 C-41.68498554 37.11841269 -41.32282889 25.16876096 -30.30078125 12.2578125 C-21.49465416 3.61614618 -12.11372357 0 0 0 Z " fill="#E74F33" transform="translate(198,89)"/>
<path d="M0 0 C5.61 0 11.22 0 17 0 C17 26.4 17 52.8 17 80 C11.39 80 5.78 80 0 80 C0 53.6 0 27.2 0 0 Z " fill="#E7492C" transform="translate(201,89)"/>
<path d="M0 0 C0.89589844 0.00322266 1.79179687 0.00644531 2.71484375 0.00976562 C4.12056641 0.02233398 4.12056641 0.02233398 5.5546875 0.03515625 C6.49957031 0.03966797 7.44445312 0.04417969 8.41796875 0.04882812 C10.75527137 0.06063268 13.09244811 0.07709866 15.4296875 0.09765625 C12.38889136 15.42251851 12.38889136 15.42251851 6.1171875 19.66015625 C-1.03955209 20.82520688 -1.03955209 20.82520688 -4.5703125 20.09765625 C-7.5078125 17.66015625 -7.5078125 17.66015625 -9.5703125 15.09765625 C-9.9003125 14.76765625 -10.2303125 14.43765625 -10.5703125 14.09765625 C-11.15999309 7.02148917 -11.15999309 7.02148917 -8.6953125 3.16015625 C-5.66711646 0.2210248 -4.10242226 -0.0259647 0 0 Z " fill="#FEFCFB" transform="translate(487.5703125,130.90234375)"/>
<path d="M0 0 C2.87715693 1.60467657 5.02080329 3.35913635 7 6 C7.76193644 9.55570339 7.86519282 11.59169343 5.9296875 14.7421875 C3.04826505 18.34827907 1.31623204 19.84812707 -3.25 20.375 C-8.19272958 19.88072704 -9.53828301 18.46171699 -13 15 C-14.6167707 11.76645861 -14.47631929 9.57239465 -14 6 C-10.36293005 1.04624597 -6.17162961 -1.32249206 0 0 Z " fill="#E74E32" transform="translate(213,64)"/>
<path d="M0 0 C0.99 0 1.98 0 3 0 C3.33 3.3 3.66 6.6 4 10 C4.66 10 5.32 10 6 10 C6.33 6.7 6.66 3.4 7 0 C8.32 0 9.64 0 11 0 C11.33 3.3 11.66 6.6 12 10 C12.66 10 13.32 10 14 10 C14.33 6.7 14.66 3.4 15 0 C15.99 0 16.98 0 18 0 C17.69075786 2.10464793 17.3774944 4.2087053 17.0625 6.3125 C16.80146484 8.07013672 16.80146484 8.07013672 16.53515625 9.86328125 C16 13 16 13 15 16 C13.68 16 12.36 16 11 16 C9.82428549 12.32589215 9.92633254 8.83070817 10 5 C9.34 5 8.68 5 8 5 C8.020625 6.0725 8.04125 7.145 8.0625 8.25 C8.0142016 11.14790424 7.86844115 13.28612141 7 16 C5.68 16 4.36 16 3 16 C1.75799248 10.6822785 0.69165788 5.41798672 0 0 Z " fill="#E95E45" transform="translate(393,185)"/>
<path d="M0 0 C8 0 8 0 11 2 C11.47730962 5.72301503 11.1387261 6.79191085 9 10 C9.99 11.98 10.98 13.96 12 16 C10.68 16 9.36 16 8 16 C6.375 13.5625 6.375 13.5625 5 11 C4.34 10.67 3.68 10.34 3 10 C3 11.98 3 13.96 3 16 C2.01 16 1.02 16 0 16 C0 10.72 0 5.44 0 0 Z " fill="#EA644B" transform="translate(375,185)"/>
<path d="M0 0 C8.875 0.875 8.875 0.875 10 2 C10.13616262 4.51900856 10.13058838 6.58211718 9.375 9 C8.85274271 11.78537219 9.81451065 13.48955196 11 16 C9.125 15.75 9.125 15.75 7 15 C5.875 13 5.875 13 5 11 C4.34 10.67 3.68 10.34 3 10 C3 11.98 3 13.96 3 16 C2.01 16 1.02 16 0 16 C0 10.72 0 5.44 0 0 Z " fill="#E85035" transform="translate(317,185)"/>
<path d="M0 0 C1.32 0 2.64 0 4 0 C6.45946923 5.25432063 7.90301833 10.30860098 9 16 C7.68 16 6.36 16 5 16 C5 14.68 5 13.36 5 12 C3.02 12 1.04 12 -1 12 C-1 13.32 -1 14.64 -1 16 C-2.32 15.67 -3.64 15.34 -5 15 C-4.35814255 12.68632778 -3.71172608 10.3741043 -3.0625 8.0625 C-2.78889648 7.0734668 -2.78889648 7.0734668 -2.50976562 6.06445312 C-1.11328125 1.11328125 -1.11328125 1.11328125 0 0 Z " fill="#E95D43" transform="translate(364,185)"/>
<path d="M0 0 C0.99 0 1.98 0 3 0 C3 1.98 3 3.96 3 6 C4.98 6 6.96 6 9 6 C9 4.02 9 2.04 9 0 C9.99 0 10.98 0 12 0 C12 5.28 12 10.56 12 16 C11.01 16 10.02 16 9 16 C9 13.69 9 11.38 9 9 C7.02 9 5.04 9 3 9 C3 11.31 3 13.62 3 16 C2.01 16 1.02 16 0 16 C0 10.72 0 5.44 0 0 Z " fill="#E85135" transform="translate(440,185)"/>
<path d="M0 0 C0.99 0 1.98 0 3 0 C3 1.98 3 3.96 3 6 C4.98 6 6.96 6 9 6 C9 4.02 9 2.04 9 0 C9.99 0 10.98 0 12 0 C12 5.28 12 10.56 12 16 C11.01 16 10.02 16 9 16 C9 13.69 9 11.38 9 9 C7.02 9 5.04 9 3 9 C3 11.31 3 13.62 3 16 C2.01 16 1.02 16 0 16 C0 10.72 0 5.44 0 0 Z " fill="#E85135" transform="translate(230,185)"/>
<path d="M0 0 C1.32 0 2.64 0 4 0 C6.45946923 5.25432063 7.90301833 10.30860098 9 16 C7.68 16 6.36 16 5 16 C5 14.68 5 13.36 5 12 C3.02 12 1.04 12 -1 12 C-1 13.32 -1 14.64 -1 16 C-1.99 16 -2.98 16 -4 16 C-2.98408579 10.53135543 -1.92908943 5.23609987 0 0 Z " fill="#E95D43" transform="translate(416,185)"/>
<path d="M0 0 C0.99 0 1.98 0 3 0 C3.33 4.62 3.66 9.24 4 14 C5.32 13.67 6.64 13.34 8 13 C8.33 8.71 8.66 4.42 9 0 C9.99 0 10.98 0 12 0 C12.0810206 2.10353495 12.13919907 4.20795952 12.1875 6.3125 C12.22230469 7.48425781 12.25710938 8.65601563 12.29296875 9.86328125 C12 13 12 13 10.67578125 14.89453125 C8.05917019 16.62064064 6.04692394 16.38086549 3 16 C1.32421875 14.89453125 1.32421875 14.89453125 0 13 C-0.29296875 9.86328125 -0.29296875 9.86328125 -0.1875 6.3125 C-0.16042969 5.13300781 -0.13335937 3.95351562 -0.10546875 2.73828125 C-0.07066406 1.83464844 -0.03585937 0.93101562 0 0 Z " fill="#E74C30" transform="translate(301,185)"/>
<path d="M0 0 C0.99 0 1.98 0 3 0 C3.33 4.62 3.66 9.24 4 14 C5.32 13.67 6.64 13.34 8 13 C8.33 8.71 8.66 4.42 9 0 C9.99 0 10.98 0 12 0 C12.0810206 2.10353495 12.13919907 4.20795952 12.1875 6.3125 C12.22230469 7.48425781 12.25710938 8.65601563 12.29296875 9.86328125 C12 13 12 13 10.67578125 14.89453125 C8.05917019 16.62064064 6.04692394 16.38086549 3 16 C1.32421875 14.89453125 1.32421875 14.89453125 0 13 C-0.29296875 9.86328125 -0.29296875 9.86328125 -0.1875 6.3125 C-0.16042969 5.13300781 -0.13335937 3.95351562 -0.10546875 2.73828125 C-0.07066406 1.83464844 -0.03585937 0.93101562 0 0 Z " fill="#E74C30" transform="translate(274,185)"/>
<path d="M0 0 C3.625 0.375 3.625 0.375 7 1 C7 1.66 7 2.32 7 3 C5.02 3 3.04 3 1 3 C1.33 3.99 1.66 4.98 2 6 C2.825 6.268125 3.65 6.53625 4.5 6.8125 C5.7375 7.4003125 5.7375 7.4003125 7 8 C8 10.9375 8 10.9375 8 14 C6.9375 15.875 6.9375 15.875 5 17 C1.9375 17.375 1.9375 17.375 -1 17 C-1.66 16.01 -2.32 15.02 -3 14 C-0.13822943 12.56911472 1.93375773 13.40008303 5 14 C4.26023529 10.7074288 4.26023529 10.7074288 0.9375 9.125 C-2 7 -2 7 -2.5 4.375 C-2 2 -2 2 0 0 Z " fill="#E9593F" transform="translate(429,184)"/>
<path d="M0 0 C3.96 0 7.92 0 12 0 C12 0.99 12 1.98 12 3 C10.68 3 9.36 3 8 3 C8 7.29 8 11.58 8 16 C6.68 16 5.36 16 4 16 C4 11.71 4 7.42 4 3 C2.68 3 1.36 3 0 3 C0 2.01 0 1.02 0 0 Z " fill="#EB6C55" transform="translate(288,185)"/>
<path d="M0 0 C3.3 0 6.6 0 10 0 C10 0.66 10 1.32 10 2 C7.69 2 5.38 2 3 2 C3 3.65 3 5.3 3 7 C4.98 7 6.96 7 9 7 C9 7.66 9 8.32 9 9 C7.02 9 5.04 9 3 9 C3 10.65 3 12.3 3 14 C5.31 14 7.62 14 10 14 C10 14.66 10 15.32 10 16 C6.7 16 3.4 16 0 16 C0 10.72 0 5.44 0 0 Z " fill="#E74B2E" transform="translate(245,185)"/>
<path d="M0 0 C3.96 0 7.92 0 12 0 C12 0.99 12 1.98 12 3 C10.68 3 9.36 3 8 3 C8 7.29 8 11.58 8 16 C6.68 16 5.36 16 4 16 C4 11.71 4 7.42 4 3 C2.68 3 1.36 3 0 3 C0 2.01 0 1.02 0 0 Z " fill="#EB6C55" transform="translate(216,185)"/>
<path d="M0 0 C2.97 0 5.94 0 9 0 C9 0.66 9 1.32 9 2 C7.02 2 5.04 2 3 2 C3 3.65 3 5.3 3 7 C4.65 7 6.3 7 8 7 C8 7.66 8 8.32 8 9 C6.35 9 4.7 9 3 9 C3 10.65 3 12.3 3 14 C4.98 14 6.96 14 9 14 C9 14.66 9 15.32 9 16 C6.03 16 3.06 16 0 16 C0 10.72 0 5.44 0 0 Z " fill="#E74C2F" transform="translate(331,185)"/>
<path d="M0 0 C1.0725 0.268125 2.145 0.53625 3.25 0.8125 C3.25 1.4725 3.25 2.1325 3.25 2.8125 C0.94 2.8125 -1.37 2.8125 -3.75 2.8125 C-3.75 6.4425 -3.75 10.0725 -3.75 13.8125 C-1.77 13.4825 0.21 13.1525 2.25 12.8125 C2.58 13.8025 2.91 14.7925 3.25 15.8125 C-3 17.25480769 -3 17.25480769 -6.1875 15.375 C-8.33144228 11.85893467 -8.50824382 8.76787497 -7.75 4.8125 C-5.57018054 0.54005385 -4.87386378 -0.24369319 0 0 Z " fill="#EA6148" transform="translate(355.75,184.1875)"/>
<path d="M0 0 C2.97 0 5.94 0 9 0 C9 0.66 9 1.32 9 2 C7.02 2 5.04 2 3 2 C3 3.65 3 5.3 3 7 C4.65 7 6.3 7 8 7 C8 7.66 8 8.32 8 9 C6.35 9 4.7 9 3 9 C3 11.31 3 13.62 3 16 C2.01 16 1.02 16 0 16 C0 10.72 0 5.44 0 0 Z " fill="#E74B2E" transform="translate(263,185)"/>
<path d="M0 0 C0.33 0.66 0.66 1.32 1 2 C0.48308594 2.60328125 -0.03382813 3.2065625 -0.56640625 3.828125 C-1.55447266 5.02695313 -1.55447266 5.02695313 -2.5625 6.25 C-3.22378906 7.03890625 -3.88507813 7.8278125 -4.56640625 8.640625 C-6.257 10.87304376 -6.257 10.87304376 -5.71484375 13.296875 C-5.47894531 13.85890625 -5.24304688 14.4209375 -5 15 C-7.64 15 -10.28 15 -13 15 C-9.88907126 9.14413414 -5.52731331 3.68487554 0 0 Z " fill="#FCEFED" transform="translate(363,105)"/>
<path d="M0 0 C1.98 0 3.96 0 6 0 C6.33 0.66 6.66 1.32 7 2 C5.68 2 4.36 2 3 2 C3 3.98 3 5.96 3 8 C3.66 8.33 4.32 8.66 5 9 C4.34 9 3.68 9 3 9 C3 11.31 3 13.62 3 16 C2.01 16 1.02 16 0 16 C0 10.72 0 5.44 0 0 Z " fill="#E85035" transform="translate(375,185)"/>
<path d="M0 0 C1.89453125 0.1953125 1.89453125 0.1953125 4 1 C5.01171875 3.1796875 5.01171875 3.1796875 5.6875 5.875 C5.91824219 6.75929687 6.14898437 7.64359375 6.38671875 8.5546875 C6.69029297 9.76511719 6.69029297 9.76511719 7 11 C7.33 11.99 7.66 12.98 8 14 C6.125 13.75 6.125 13.75 4 13 C2.875 11.0625 2.875 11.0625 2 9 C1.34 8.34 0.68 7.68 0 7 C-0.125 3.375 -0.125 3.375 0 0 Z " fill="#EA6046" transform="translate(320,187)"/>
<path d="M0 0 C0.99 0 1.98 0 3 0 C3 5.28 3 10.56 3 16 C2.01 16 1.02 16 0 16 C-0.82622671 10.39436958 -1.06795656 5.57710648 0 0 Z " fill="#E7492C" transform="translate(449,185)"/>
<path d="M0 0 C0.99 0 1.98 0 3 0 C3 5.28 3 10.56 3 16 C2.01 16 1.02 16 0 16 C-0.82622671 10.39436958 -1.06795656 5.57710648 0 0 Z " fill="#E7492C" transform="translate(239,185)"/>
<path d="M0 0 C0.99 0 1.98 0 3 0 C2.34 4.29 1.68 8.58 1 13 C0.34 12.67 -0.32 12.34 -1 12 C-1.14285714 3.42857143 -1.14285714 3.42857143 0 0 Z " fill="#E9593E" transform="translate(408,185)"/>
<path d="M0 0 C2 2 2 2 2 5 C1.34 5 0.68 5 0 5 C0 5.99 0 6.98 0 8 C-1.32 7.67 -2.64 7.34 -4 7 C-3.67 5.02 -3.34 3.04 -3 1 C-2.01 0.67 -1.02 0.34 0 0 Z " fill="#F4AB9E" transform="translate(368,187)"/>
<path d="M0 0 C2.475 0.495 2.475 0.495 5 1 C5 1.99 5 2.98 5 4 C4.34 4 3.68 4 3 4 C3 4.99 3 5.98 3 7 C2.01 7 1.02 7 0 7 C0 4.69 0 2.38 0 0 Z " fill="#F4AC9F" transform="translate(417,188)"/>
<path d="M0 0 C2.31 0.33 4.62 0.66 7 1 C7 1.66 7 2.32 7 3 C5.02 3 3.04 3 1 3 C0.67 3.66 0.34 4.32 0 5 C-0.66 4.67 -1.32 4.34 -2 4 C-1.34 2.68 -0.68 1.36 0 0 Z " fill="#EA654C" transform="translate(429,184)"/>
<path d="M0 0 C1.32 0 2.64 0 4 0 C4.33 1.32 4.66 2.64 5 4 C3.68 3.67 2.36 3.34 1 3 C0.67 4.65 0.34 6.3 0 8 C-0.33 8 -0.66 8 -1 8 C-0.67 5.36 -0.34 2.72 0 0 Z " fill="#E8553A" transform="translate(416,185)"/>
<path d="M0 0 C1.32 0 2.64 0 4 0 C3.67 1.32 3.34 2.64 3 4 C2.34 3.67 1.68 3.34 1 3 C1 3.99 1 4.98 1 6 C0.34 6 -0.32 6 -1 6 C-1.042721 4.33388095 -1.04063832 2.66617115 -1 1 C-0.67 0.67 -0.34 0.34 0 0 Z " fill="#E85338" transform="translate(364,185)"/>
<path d="M0 0 C0 3.77910478 -0.99703962 4.46106101 -3.5 7.1875 C-4.1496875 7.90292969 -4.799375 8.61835937 -5.46875 9.35546875 C-5.9740625 9.89816406 -6.479375 10.44085938 -7 11 C-7.66 10.34 -8.32 9.68 -9 9 C-6.03 6.03 -3.06 3.06 0 0 Z " fill="#EE826F" transform="translate(368,96)"/>
<path d="M0 0 C1.32 0 2.64 0 4 0 C4 1.65 4 3.3 4 5 C2.68 5 1.36 5 0 5 C0 3.35 0 1.7 0 0 Z " fill="#FCEDEB" transform="translate(378,187)"/>
<path d="M0 0 C3 3.875 3 3.875 3 5 C0.36 5 -2.28 5 -5 5 C-3.35 3.35 -1.7 1.7 0 0 Z " fill="#FEFBFB" transform="translate(355,115)"/>
<path d="M0 0 C1.32 0.33 2.64 0.66 4 1 C4 2.32 4 3.64 4 5 C2.68 5 1.36 5 0 5 C0 3.35 0 1.7 0 0 Z " fill="#FCECE9" transform="translate(320,187)"/>
<path d="M0 0 C0.99 0.33 1.98 0.66 3 1 C3 2.65 3 4.3 3 6 C2.01 6 1.02 6 0 6 C-0.38218767 4.34385343 -0.71395102 2.67542976 -1 1 C-0.67 0.67 -0.34 0.34 0 0 Z " fill="#E9583D" transform="translate(324,186)"/>
<path d="M0 0 C0.99 0 1.98 0 3 0 C3.33 2.31 3.66 4.62 4 7 C3.01 7 2.02 7 1 7 C0.67 4.69 0.34 2.38 0 0 Z " fill="#E74F33" transform="translate(393,185)"/>
</svg>
